<svg width="200" height="200" viewBox="0 0 200 200" fill="none" xmlns="http://www.w3.org/2000/svg">
<rect width="200" height="200" fill="#1E1E1E"/>
<rect width="200" height="200" fill="#D9D9D9"/>
<path d="M45 20L50.6129 37.2746H68.7764L54.0818 47.9508L59.6946 65.2254L45 54.5491L30.3054 65.2254L35.9182 47.9508L21.2236 37.2746H39.3871L45 20Z" fill="white"/>
<path d="M105.5 93L108.306 101.637H117.388L110.041 106.975L112.847 115.613L105.5 110.275L98.1527 115.613L100.959 106.975L93.6118 101.637H102.694L105.5 93Z" fill="white"/>
<path d="M55 95L60.6129 112.275H78.7764L64.0818 122.951L69.6946 140.225L55 129.549L40.3054 140.225L45.9182 122.951L31.2236 112.275H49.3871L55 95Z" fill="white"/>
<path d="M167 120L172.613 137.275H190.776L176.082 147.951L181.695 165.225L167 154.549L152.305 165.225L157.918 147.951L143.224 137.275H161.387L167 120Z" fill="white"/>
<path d="M142 40L147.613 57.2746H165.776L151.082 67.9508L156.695 85.2254L142 74.5491L127.305 85.2254L132.918 67.9508L118.224 57.2746H136.387L142 40Z" fill="white"/>
<line x1="142.477" y1="64.8509" x2="167.477" y2="144.851" stroke="white"/>
<line x1="141.899" y1="65.4897" x2="44.899" y2="45.4897" stroke="white"/>
<line x1="54.5044" y1="120.066" x2="44.5044" y2="45.0661" stroke="white"/>
<line x1="54.8563" y1="119.521" x2="104.856" y2="104.521" stroke="white"/>
</svg>
